<?xml version="1.0" encoding="utf-8"?><svg viewBox="0 0 201 80" xmlns="http://www.w3.org/2000/svg" xmlns:xlink="http://www.w3.org/1999/xlink"><style>:root>svg{display:none}:root>svg:target{display:block}</style><svg fill="none" viewBox="0 0 159 64" id="logo-footer" xmlns="http://www.w3.org/2000/svg"><g clip-path="url(#aa)"><path d="m131.365 26.501 1.849 4.252c2.725.375 8.307 1.135 8.833 1.174.525.039 4.938-.86 7.079-1.314 1.452-1.792 4.463-5.445 4.891-5.717.535-.341.997-7.64 1.022-7.932.024-.292-1.217-1.533-1.412-1.46-.194.073-12.286-1.825-13.381-1.605-1.095.219-7.032 0-7.299 0-.213 0-1.678 3.276-2.384 4.914l.802 7.688Z" fill="#fff"/><path d="M76.219 53.085a4.392 4.392 0 0 1-1.527-2.305c-.26-.89-1.464-1.267-3.089.294a23.625 23.625 0 0 1-12.656 6.262c-6.444.862-10.654-1.233-15.213-2.661-4.56-1.43-4.441.805-4.308 1.547a.07.07 0 0 0 .133 0c.7-1.31 4.58 2.053 10.57 4.686 8.846 3.901 16.2 2.802 20.85.7 3.552-1.624 7.005-4.538 7.173-6.506.098-1.443-1.114-1.387-1.933-2.017Z" fill="#FB2222"/><path d="M84.05 46.55a3.608 3.608 0 0 0-4.126.7c-.56.47-1.03.931-1.45 1.345-1.086 1.05-1.821 1.772-2.85 1.52h-.064c.058.122.107.249.147.378.189.692.59 1.307 1.15 1.758.146.103.303.19.468.259l.091.042c.183.084.435.203.659.336h.035c.49-2.171 1.366-3.845 2.563-4.826 1.73-1.4 3.222.077 3.502.393a1.19 1.19 0 0 0-.126-1.905Z" fill="#088D00"/><path d="M129.849 26.54c0-2.718-1.786-4.504-4.202-4.504-4.168 0-8.805 7.277-11.781 12.572 1.253-4.902 3.173-7.473 3.173-9.259 0-2.515-.925-3.313-2.711-3.313-2.445 0-5.029 1.59-5.757 5.954a56.645 56.645 0 0 1-1.352 6.107c-3.684 4.126-8.083 7.929-12.748 7.929-3.971 0-5.029-2.248-5.295-5.03h.266c10.507 0 15.024-5.287 15.024-9.595 0-2.907-2.802-5.358-6.486-5.358-6.794 0-12.173 5.358-14.358 11.445a17.666 17.666 0 0 1-3.075-1.317 15.921 15.921 0 0 0 1.212-5.491c0-3.642-1.954-5.155-4.37-5.155a5.478 5.478 0 0 0-5.758 5.547c0 2.914 1.933 4.973 4.679 6.66-2.186 4.105-5.47 6.844-7.985 6.844-1.856 0-2.319-2.585-2.319-4.77.008-1.063.097-2.123.267-3.173 0 0 3.642-5.162 3.642-8.272 0-1.323-.7-2.318-2.585-2.318-3.712 0-6.205 5.66-7.193 11.627-3.733 4.28-8.279 8.356-13.112 8.356-3.97 0-5.029-2.248-5.295-5.03h.266c10.507 0 15.017-5.287 15.017-9.595 0-2.907-2.801-5.358-6.485-5.358-8.93 0-15.41 9.267-15.41 17.272-.007 5.351 3.502 8.314 8.223 8.314 6.045 0 11.137-3.642 16.355-9.687v1.345c0 5.358 2.101 8.342 5.358 8.342 4.903 0 11.585-5.512 14.428-12.607a26.31 26.31 0 0 0 3.425 1.155 16.727 16.727 0 0 0-.3 3.096c-.043 5.393 3.46 8.356 8.152 8.356 5.603 0 10.359-3.117 15.178-8.356-.7 2.676-.967 3.145-.967 5.176 0 2.452 1.191 3.18 2.914 3.18 4.098 0 5.954-6.423 7.081-9.4 1.583-4.202 4.826-9.595 6.549-9.595.595 0 .925.7.925 1.723 0 .658-.196 1.058-.196 1.45 0 .7.399.994 1.253.994 2.319.021 6.353-2.626 6.353-6.261Zm-34.39-.133c1.324 0 2.318.791 2.318 2.514 0 4.763-5.162 5.491-8.209 5.491h-.399c.4-5.225 3.901-8.005 6.29-8.005Zm-47.446 0c1.324 0 2.318.791 2.318 2.514 0 4.763-5.162 5.491-8.202 5.491h-.399c.4-5.225 3.902-8.005 6.283-8.005ZM77.71 30.7c-1.183-.777-2.675-2.15-2.451-3.79.266-2.023 1.436-2.36 2.101-2.36.666 0 1.401.533 1.401 2.102.014.742-.47 3.27-1.05 4.048Z" fill="#fff"/><path d="M37.458 53.512c-7.705-3.684-6.57-11.816-5.771-16.642.237-1.783.6-3.548 1.085-5.28.441-.617 1.058-1.401 1.8-2.396C38.845 23.591 47.06 12.902 47.06 4.778c0-2.984-1.19-4.77-4.202-4.77C35.315 0 26.854 22 24.5 34.44c0 .07 0 .133-.035.196-3.614 3.971-7.914 7.53-12.306 7.53-3.11 0-4.903-2.445-4.903-6.017 0-4.041 2.914-9.596 5.89-9.596.925 0 1.324.26 1.324.463 0 .392-.798.861-.798 3.04a3.544 3.544 0 0 0 3.572 3.501 5.715 5.715 0 0 0 5.428-5.82c0-3.313-2.71-5.694-6.353-5.694C6.773 22.036.616 31.303.616 39.308c0 3.376 1.856 8.32 8.139 8.32 5.645 0 10.338-3.18 15.122-8.523V39.826c-.147 11.347 8.076 15.052 13.16 15.584a.917.917 0 0 0 .946-.574 1.037 1.037 0 0 0-.525-1.324Zm4.86-43.979c.33 0 .463.267.463.7 0 1.92-3.173 7.873-7.606 14.233 0-.035 5.365-14.933 7.144-14.933Z" fill="#fff"/><path d="M137.435 20.396c-1.226 0-2.221 1.401-2.221 3.096a1.572 1.572 0 0 0 .893 1.606c.199.093.415.142.634.145 1.24 0 2.178-1.4 2.178-3.067 0-1.093-.574-1.78-1.484-1.78Z" fill="#FB2222"/><path d="M154.356 12.888h-24.865a4.342 4.342 0 0 0-4.279 3.586l-.82 4.538a8 8 0 0 1 .561-.105h.098c.188-.022.378-.033.567-.035 3.124 0 5.386 2.382 5.386 5.66 0 .234-.014.468-.042.7v.14c-.028.222-.07.442-.126.659a.593.593 0 0 0 0 .119 7.87 7.87 0 0 1-.189.574v.098c-.084.196-.175.392-.273.588l-.084.154a7.411 7.411 0 0 1-.322.547l-.084.112a5.682 5.682 0 0 1-.309.427l-.126.161c-.126.147-.252.294-.385.434l-.175.183-.315.3-.252.218-.329.273-.232.175-.427.294h24.977a4.371 4.371 0 0 0 4.349-3.502l2.06-11.171a4.347 4.347 0 0 0-2.492-4.747 4.345 4.345 0 0 0-1.872-.38Zm-16.922 14.638a2.803 2.803 0 0 1-2.802-1.807h-.056l-.126.596a1.359 1.359 0 1 1-2.654-.567l1.968-9.267a1.396 1.396 0 0 1 1.671-1.132 1.402 1.402 0 0 1 1.068 1.713l-.54 2.55h.07a3.137 3.137 0 0 1 2.739-1.401c1.905 0 3.096 1.345 3.096 3.558 0 3.187-1.87 5.757-4.434 5.757Zm13.819-7.256-3.852 7.228c-1.24 2.34-2.746 3.215-5.183 3.215h-.231a.769.769 0 0 1-.771-.98l.091-.435a1.125 1.125 0 0 1 1.03-.82c.861 0 1.401-.272 1.506-.945 0-.049.07-.252.063-.287l-.862-7.361a1.414 1.414 0 0 1 .336-1.022 1.41 1.41 0 0 1 .96-.484 1.403 1.403 0 0 1 1.506 1.296l.189 5.456h.056l2.802-6.038a1.33 1.33 0 0 1 2.501.127 1.321 1.321 0 0 1-.12 1.05h-.021Z" fill="#FB2222"/></g><defs><clipPath id="aa"><path fill="#fff" transform="translate(.616)" d="M0 0h158.09v63.513H0z"/></clipPath></defs></svg><svg fill="none" viewBox="0 0 201 80" id="logo-header" xmlns="http://www.w3.org/2000/svg"><g clip-path="url(#ba)"><path d="M94.975 66.687a5.518 5.518 0 0 1-1.918-2.895c-.325-1.117-1.839-1.592-3.88.37a29.68 29.68 0 0 1-15.9 7.866c-8.095 1.082-13.383-1.549-19.111-3.344-5.728-1.795-5.579 1.012-5.411 1.945a.088.088 0 0 0 .135.044.088.088 0 0 0 .032-.044c.88-1.645 5.754 2.578 13.277 5.886 11.113 4.901 20.352 3.52 26.195.88 4.46-2.041 8.799-5.701 9.01-8.174.123-1.812-1.4-1.742-2.429-2.534Z" fill="#FB2222"/><path d="M104.813 58.478a4.532 4.532 0 0 0-5.183.88c-.704.59-1.293 1.17-1.821 1.689-1.364 1.32-2.288 2.226-3.581 1.91h-.08c.073.153.134.312.185.474.237.87.742 1.643 1.443 2.209.184.13.382.239.59.326l.114.052c.23.106.546.255.827.423h.044c.616-2.728 1.716-4.83 3.221-6.063 2.173-1.76 4.047.097 4.399.493a1.492 1.492 0 0 0 .522-1.236 1.504 1.504 0 0 0-.68-1.157Z" fill="#088D00"/><path d="M162.349 33.34c0-3.415-2.244-5.658-5.28-5.658-5.235 0-11.06 9.142-14.799 15.794 1.575-6.16 3.986-9.389 3.986-11.633 0-3.158-1.162-4.161-3.406-4.161-3.07 0-6.317 1.997-7.232 7.479a70.835 70.835 0 0 1-1.699 7.672c-4.628 5.183-10.154 9.96-16.014 9.96-4.989 0-6.317-2.824-6.652-6.317h.335c13.198 0 18.873-6.643 18.873-12.054 0-3.652-3.519-6.732-8.147-6.732-8.535 0-15.293 6.732-18.038 14.378a22.187 22.187 0 0 1-3.863-1.654 19.991 19.991 0 0 0 1.522-6.899c0-4.575-2.455-6.476-5.49-6.476a6.88 6.88 0 0 0-7.233 6.97c0 3.66 2.428 6.246 5.878 8.367-2.746 5.156-6.872 8.596-10.031 8.596-2.332 0-2.912-3.246-2.912-5.992.009-1.335.12-2.667.334-3.986 0 0 4.575-6.484 4.575-10.391 0-1.663-.88-2.913-3.246-2.913-4.664 0-7.796 7.11-9.037 14.607-4.69 5.376-10.4 10.497-16.472 10.497-4.989 0-6.317-2.825-6.652-6.318h.335c13.198 0 18.865-6.643 18.865-12.054 0-3.652-3.52-6.732-8.148-6.732-11.219 0-19.358 11.641-19.358 21.699-.009 6.722 4.4 10.444 10.33 10.444 7.594 0 13.99-4.575 20.546-12.169v1.69c0 6.73 2.64 10.479 6.73 10.479 6.16 0 14.554-6.925 18.127-15.838 1.399.582 2.836 1.067 4.302 1.452a21.063 21.063 0 0 0-.378 3.889c-.053 6.775 4.347 10.497 10.242 10.497 7.039 0 13.014-3.916 19.067-10.497-.88 3.361-1.214 3.95-1.214 6.502 0 3.08 1.496 3.995 3.66 3.995 5.148 0 7.479-8.069 8.896-11.808 1.989-5.28 6.063-12.055 8.227-12.055.748 0 1.162.88 1.162 2.165 0 .827-.247 1.328-.247 1.821 0 .88.502 1.25 1.575 1.25 2.913.026 7.981-3.3 7.981-7.867Zm-43.203-.168c1.663 0 2.912.995 2.912 3.159 0 5.983-6.484 6.898-10.312 6.898h-.501c.501-6.564 4.901-10.057 7.901-10.057Zm-59.604 0c1.663 0 2.913.995 2.913 3.159 0 5.983-6.485 6.898-10.304 6.898h-.502c.502-6.564 4.901-10.057 7.893-10.057Zm37.308 5.394c-1.487-.977-3.362-2.701-3.08-4.76.334-2.543 1.804-2.965 2.64-2.965.836 0 1.76.668 1.76 2.64.017.932-.59 4.108-1.32 5.085Z" fill="#141514"/><path d="M46.282 67.223c-9.678-4.628-8.253-14.843-7.25-20.906.298-2.24.754-4.458 1.364-6.634.554-.775 1.328-1.76 2.261-3.01C48.025 29.634 58.346 16.207 58.346 6c0-3.748-1.496-5.992-5.28-5.992C43.59 0 32.961 27.637 30.004 43.264c0 .088 0 .167-.044.246-4.54 4.99-9.943 9.46-15.46 9.46-3.906 0-6.159-3.072-6.159-7.56 0-5.076 3.66-12.054 7.4-12.054 1.162 0 1.663.326 1.663.581 0 .493-1.003 1.082-1.003 3.819a4.452 4.452 0 0 0 4.488 4.4 7.18 7.18 0 0 0 6.819-7.313c0-4.162-3.405-7.153-7.98-7.153C7.733 27.68 0 39.322 0 49.38c0 4.24 2.332 10.452 10.224 10.452 7.092 0 12.988-3.994 18.997-10.708v.906c-.185 14.254 10.145 18.91 16.533 19.578a1.153 1.153 0 0 0 1.188-.722 1.302 1.302 0 0 0-.66-1.663Zm6.107-55.248c.413 0 .58.334.58.88 0 2.41-3.985 9.89-9.555 17.88 0-.045 6.74-18.76 8.975-18.76Z" fill="#141514"/><path d="M171.878 25.623c-1.54 0-2.789 1.76-2.789 3.89a1.949 1.949 0 0 0 1.122 2.018c.249.115.521.177.796.18 1.557 0 2.736-1.759 2.736-3.853 0-1.373-.721-2.235-1.865-2.235Z" fill="#FB2222"/><path d="M193.136 16.19H161.9a5.454 5.454 0 0 0-5.376 4.505l-1.03 5.702c.238-.053.467-.097.704-.132h.123a6.47 6.47 0 0 1 .713-.044c3.924 0 6.767 2.992 6.767 7.11 0 .294-.018.587-.053.88v.175a6.461 6.461 0 0 1-.159.828.748.748 0 0 0 0 .15 9.69 9.69 0 0 1-.237.72v.124c-.106.246-.22.492-.343.739l-.106.194a9.106 9.106 0 0 1-.405.686l-.105.14a7.71 7.71 0 0 1-.387.537l-.159.203c-.158.184-.317.37-.484.545l-.22.229-.396.378-.316.273-.414.343-.29.22-.537.37h31.377a5.49 5.49 0 0 0 5.464-4.4l2.587-14.034a5.454 5.454 0 0 0-5.482-6.44Zm-21.258 18.39a3.519 3.519 0 0 1-3.52-2.27h-.07l-.158.748a1.72 1.72 0 0 1-.723 1.133 1.706 1.706 0 0 1-2.612-1.846l2.472-11.64a1.756 1.756 0 0 1 2.1-1.422 1.755 1.755 0 0 1 1.128.79 1.77 1.77 0 0 1 .213 1.361l-.678 3.203h.088a3.938 3.938 0 0 1 3.441-1.76c2.393 0 3.889 1.69 3.889 4.47 0 4.004-2.35 7.233-5.57 7.233Zm17.36-9.116-4.839 9.08c-1.558 2.94-3.449 4.04-6.511 4.04h-.291a.97.97 0 0 1-.968-1.232l.115-.546a1.406 1.406 0 0 1 1.293-1.03c1.082 0 1.76-.343 1.892-1.187 0-.062.088-.317.079-.361l-1.082-9.248a1.778 1.778 0 0 1 .083-.683 1.778 1.778 0 0 1 .881-1.024 1.77 1.77 0 0 1 1.947.238 1.766 1.766 0 0 1 .608 1.205l.238 6.855h.07l3.52-7.585a1.665 1.665 0 0 1 .957-.921 1.673 1.673 0 0 1 2.035 2.4h-.027Z" fill="#FB2222"/></g><defs><clipPath id="ba"><path fill="#fff" d="M0 0h201v80H0z"/></clipPath></defs></svg></svg>